<svg id="Layer_1" data-name="Layer 1" xmlns="http://www.w3.org/2000/svg" xmlns:xlink="http://www.w3.org/1999/xlink" viewBox="0 0 314.8 314.8"><defs><style>.cls-1{fill:none;}.cls-2{fill:#ededed;}.cls-3{clip-path:url(#clip-path);}.cls-4{fill:#d07c3f;}.cls-5{fill:#eec65d;}.cls-6{fill:#dca34f;}.cls-7{fill:#cba94f;}.cls-8{fill:#fff;}</style><clipPath id="clip-path"><circle class="cls-1" cx="157.4" cy="157.4" r="157.4"/></clipPath></defs><title>Artboard 1</title><circle class="cls-2" cx="157.4" cy="157.4" r="157.4"/><g class="cls-3"><path class="cls-4" d="M69.8,95.4H249.6V250.3H69.9Z"/></g><circle class="cls-1" cx="157.4" cy="157.4" r="157.4"/><path class="cls-5" d="M60.5,132.6V281.8c45.7,35.5,94.2,32.78,104.53,32.83h0c7.3,0,46.42-1.66,93.87-36.83V132.6C258.9,132.8,60.6,132.6,60.5,132.6ZM88.4,108,69.8,95.4v31H88.4ZM249.6,95.4,231,107.8v18.6h18.6Z"/><g class="cls-3"><path class="cls-6" d="M88.4,132.6V107.8L60.3,132.6ZM231,107.8v24.8h28.2Z"/></g><g class="cls-3"><path class="cls-4" d="M104.5,168.3a8.62,8.62,0,0,0-8.5,8.5,8.43,8.43,0,0,0,8.36,8.5h.14a8.62,8.62,0,0,0,8.5-8.5,8.31,8.31,0,0,0-8.12-8.5Zm103.8,0a8.62,8.62,0,0,0-8.5,8.5,8.43,8.43,0,0,0,8.36,8.5h.14a8.62,8.62,0,0,0,8.5-8.5,8.31,8.31,0,0,0-8.12-8.5Z"/></g><g class="cls-3"><path class="cls-7" d="M156.6,239.6c-30.8,0-55.8-27.3-55.8-60.9a3.91,3.91,0,1,1,7.8,0c0,29,21.5,52.4,48.1,52.4s48.1-23.6,48.1-52.4a3.91,3.91,0,1,1,7.8,0C212.4,212.3,187.3,239.6,156.6,239.6Z"/></g><g class="cls-3"><path class="cls-8" d="M156.6,234.8c-30.8,0-55.8-25.3-55.8-56.4a3.9,3.9,0,0,1,7.8,0c0,26.8,21.5,48.7,48.1,48.7s48.1-21.9,48.1-48.7a3.9,3.9,0,0,1,7.8,0h0C212.4,209.5,187.3,234.8,156.6,234.8Z"/></g></svg>